<svg xmlns="http://www.w3.org/2000/svg" viewBox="0 0 1000 600">
  <!-- Definitions -->
  <defs>
    <!-- Gradients and effects -->
    <linearGradient id="fieldGradient" x1="0%" y1="0%" x2="100%" y2="100%">
      <stop offset="0%" stop-color="#2E7D32" />
      <stop offset="50%" stop-color="#388E3C" />
      <stop offset="100%" stop-color="#2E7D32" />
    </linearGradient>
    
    <linearGradient id="hologramGlow" x1="0%" y1="0%" x2="100%" y2="100%">
      <stop offset="0%" stop-color="#64B5F6" stop-opacity="0.8" />
      <stop offset="100%" stop-color="#2979FF" stop-opacity="0.4" />
    </linearGradient>
    
    <linearGradient id="hologramFloor" x1="0%" y1="0%" x2="100%" y2="0%">
      <stop offset="0%" stop-color="#1A237E" stop-opacity="0.1" />
      <stop offset="50%" stop-color="#3949AB" stop-opacity="0.3" />
      <stop offset="100%" stop-color="#1A237E" stop-opacity="0.1" />
    </linearGradient>
    
    <linearGradient id="goldenShine" x1="0%" y1="0%" x2="100%" y2="100%">
      <stop offset="0%" stop-color="#FFD54F" />
      <stop offset="50%" stop-color="#FFECB3" />
      <stop offset="100%" stop-color="#FFC107" />
    </linearGradient>
    
    <linearGradient id="cardGradient1" x1="0%" y1="0%" x2="100%" y2="100%">
      <stop offset="0%" stop-color="#1976D2" />
      <stop offset="100%" stop-color="#0D47A1" />
    </linearGradient>
    
    <linearGradient id="cardGradient2" x1="0%" y1="0%" x2="100%" y2="100%">
      <stop offset="0%" stop-color="#D32F2F" />
      <stop offset="100%" stop-color="#B71C1C" />
    </linearGradient>
    
    <radialGradient id="spotlightGradient" cx="50%" cy="50%" r="70%" fx="50%" fy="50%">
      <stop offset="0%" stop-color="#FFFFFF" stop-opacity="0.3" />
      <stop offset="100%" stop-color="#FFFFFF" stop-opacity="0" />
    </radialGradient>
    
    <filter id="glow" x="-50%" y="-50%" width="200%" height="200%">
      <feGaussianBlur in="SourceGraphic" stdDeviation="10" result="blur" />
      <feColorMatrix in="blur" type="matrix" values="0 0 0 0 0.2  0 0 0 0 0.6  0 0 0 0 1  0 0 0 1 0" result="coloredBlur" />
      <feMerge>
        <feMergeNode in="coloredBlur" />
        <feMergeNode in="SourceGraphic" />
      </feMerge>
    </filter>
    
    <filter id="dropShadow" x="-20%" y="-20%" width="140%" height="140%">
      <feGaussianBlur in="SourceAlpha" stdDeviation="5" />
      <feOffset dx="0" dy="5" result="offsetblur" />
      <feComponentTransfer>
        <feFuncA type="linear" slope="0.5" />
      </feComponentTransfer>
      <feMerge>
        <feMergeNode />
        <feMergeNode in="SourceGraphic" />
      </feMerge>
    </filter>
    
    <pattern id="gridPattern" patternUnits="userSpaceOnUse" width="40" height="40">
      <rect width="40" height="40" fill="url(#fieldGradient)" />
      <path d="M 40 0 L 0 0 0 40" fill="none" stroke="#FFFFFF" stroke-width="0.5" opacity="0.3" />
    </pattern>
    
    <!-- 3D elements definitions -->
    <linearGradient id="cardEdge" x1="0%" y1="0%" x2="0%" y2="100%">
      <stop offset="0%" stop-color="#FFFFFF" stop-opacity="0.8" />
      <stop offset="50%" stop-color="#FFFFFF" stop-opacity="0.2" />
      <stop offset="100%" stop-color="#FFFFFF" stop-opacity="0.8" />
    </linearGradient>
  </defs>
  
  <!-- Background -->
  <rect width="1000" height="600" fill="#0D1B2A" />
  
  <!-- Stadium backdrop (subtle) -->
  <path d="M 50,400 C 200,350 800,350 950,400 L 950,600 L 50,600 Z" fill="#1A1A1A" opacity="0.6" />
  <path d="M 50,350 C 200,320 800,320 950,350 L 950,400 L 50,400 Z" fill="#2A2A2A" opacity="0.7" />
  <path d="M 150,320 C 300,300 700,300 850,320 L 850,350 L 150,350 Z" fill="#3A3A3A" opacity="0.5" />
  
  <!-- Stadium spotlights effect -->
  <ellipse cx="300" cy="150" rx="200" ry="150" fill="url(#spotlightGradient)" opacity="0.3" />
  <ellipse cx="700" cy="150" rx="200" ry="150" fill="url(#spotlightGradient)" opacity="0.3" />
  
  <!-- Holographic platform for the field -->
  <path d="M 150,380 C 200,370 800,370 850,380 L 900,430 C 850,420 150,420 100,430 Z" fill="url(#hologramFloor)" opacity="0.8" />
  <ellipse cx="500" cy="400" rx="420" ry="30" fill="#1A237E" opacity="0.2" />
  
  <!-- 3D Field with perspective -->
  <polygon points="150,380 850,380 780,200 220,200" fill="url(#gridPattern)" stroke="#64B5F6" stroke-width="2" opacity="0.95" />
  
  <!-- Field markings -->
  <!-- Center line -->
  <line x1="500" y1="200" x2="500" y2="380" stroke="#FFFFFF" stroke-width="2" opacity="0.8" />
  <!-- Center circle -->
  <ellipse cx="500" cy="290" rx="50" ry="25" fill="none" stroke="#FFFFFF" stroke-width="2" opacity="0.7" />
  <!-- Penalty areas -->
  <path d="M 220,240 L 300,240 L 300,340 L 220,340 Z" fill="none" stroke="#FFFFFF" stroke-width="2" opacity="0.7" />
  <path d="M 780,240 L 700,240 L 700,340 L 780,340 Z" fill="none" stroke="#FFFFFF" stroke-width="2" opacity="0.7" />
  <!-- Goal areas -->
  <rect x="220" y="265" width="30" height="50" fill="none" stroke="#FFFFFF" stroke-width="2" opacity="0.7" />
  <rect x="750" y="265" width="30" height="50" fill="none" stroke="#FFFFFF" stroke-width="2" opacity="0.7" />
  
  <!-- Holographic grid overlay -->
  <path d="M 150,380 L 850,380 L 780,200 L 220,200 Z" fill="none" stroke="#64B5F6" stroke-width="0.5" opacity="0.3" />
  <!-- Horizontal grid lines -->
  <line x1="220" y1="230" x2="780" y2="230" stroke="#64B5F6" stroke-width="0.5" opacity="0.3" />
  <line x1="220" y1="260" x2="780" y2="260" stroke="#64B5F6" stroke-width="0.5" opacity="0.3" />
  <line x1="220" y1="290" x2="780" y2="290" stroke="#64B5F6" stroke-width="0.5" opacity="0.3" />
  <line x1="220" y1="320" x2="780" y2="320" stroke="#64B5F6" stroke-width="0.5" opacity="0.3" />
  <line x1="220" y1="350" x2="780" y2="350" stroke="#64B5F6" stroke-width="0.5" opacity="0.3" />
  <!-- Vertical grid lines -->
  <line x1="255" y1="200" x2="200" y2="380" stroke="#64B5F6" stroke-width="0.5" opacity="0.3" />
  <line x1="325" y1="200" x2="290" y2="380" stroke="#64B5F6" stroke-width="0.5" opacity="0.3" />
  <line x1="395" y1="200" x2="380" y2="380" stroke="#64B5F6" stroke-width="0.5" opacity="0.3" />
  <line x1="465" y1="200" x2="470" y2="380" stroke="#64B5F6" stroke-width="0.5" opacity="0.3" />
  <line x1="535" y1="200" x2="530" y2="380" stroke="#64B5F6" stroke-width="0.5" opacity="0.3" />
  <line x1="605" y1="200" x2="620" y2="380" stroke="#64B5F6" stroke-width="0.5" opacity="0.3" />
  <line x1="675" y1="200" x2="710" y2="380" stroke="#64B5F6" stroke-width="0.5" opacity="0.3" />
  <line x1="745" y1="200" x2="800" y2="380" stroke="#64B5F6" stroke-width="0.5" opacity="0.3" />
  
  <!-- 3D Player Cards -->
  <!-- Blue team striker in 3D perspective -->
  <g transform="translate(350, 300)" filter="url(#glow)">
    <!-- Card edge thickness (3D effect) -->
    <path d="M 40,-20 L 40,40 L 45,35 L 45,-25 Z" fill="url(#cardEdge)" opacity="0.8" />
    <path d="M -40,40 L 40,40 L 45,35 L -35,35 Z" fill="url(#cardEdge)" opacity="0.6" />
    
    <!-- Card face -->
    <rect x="-40" y="-60" width="80" height="100" rx="5" fill="url(#cardGradient1)" stroke="#64B5F6" stroke-width="1" />
    
    <!-- Card header -->
    <rect x="-40" y="-60" width="80" height="20" rx="5" fill="#0D47A1" stroke="#64B5F6" stroke-width="1" />
    <text x="0" y="-45" font-family="Arial" font-size="12" font-weight="bold" text-anchor="middle" fill="#FFFFFF">STRIKER</text>
    
    <!-- Player silhouette with holographic effect -->
    <ellipse cx="0" cy="-10" rx="25" ry="25" fill="#0D47A1" opacity="0.7" />
    <path d="M -15,-10 C -5,-25 5,-25 15,-10 C 15,10 -15,10 -15,-10 Z" fill="#64B5F6" opacity="0.4" />
    <text x="0" y="-5" font-family="Arial" font-size="14" font-weight="bold" text-anchor="middle" fill="#FFFFFF">ST</text>
    
    <!-- Stats display -->
    <text x="-30" y="15" font-family="Arial" font-size="8" fill="#FFFFFF">MOV: ★★★★☆</text>
    <text x="-30" y="25" font-family="Arial" font-size="8" fill="#FFFFFF">SHT: ★★★★★</text>
    
    <!-- Player Rating -->
    <circle cx="25" cy="-45" r="10" fill="url(#goldenShine)" />
    <text x="25" y="-42" font-family="Arial" font-size="10" font-weight="bold" text-anchor="middle" fill="#000000">92</text>
    
    <!-- Holographic movement indicators -->
    <path d="M 0,35 L 0,70" stroke="#64B5F6" stroke-width="1" stroke-dasharray="2,2" />
    <path d="M 0,35 L 30,50" stroke="#64B5F6" stroke-width="1" stroke-dasharray="2,2" />
    <path d="M 0,35 L -30,50" stroke="#64B5F6" stroke-width="1" stroke-dasharray="2,2" />
    <path d="M 0,35 L 40,20" stroke="#64B5F6" stroke-width="1" stroke-dasharray="2,2" />
    
    <circle cx="0" cy="70" r="5" fill="#64B5F6" opacity="0.6" />
    <circle cx="30" cy="50" r="5" fill="#64B5F6" opacity="0.6" />
    <circle cx="-30" cy="50" r="5" fill="#64B5F6" opacity="0.6" />
    <circle cx="40" cy="20" r="5" fill="#64B5F6" opacity="0.6" />
  </g>
  
  <!-- Red team goalkeeper in 3D perspective -->
  <g transform="translate(750, 290)" filter="url(#glow)">
    <!-- Card edge thickness (3D effect) -->
    <path d="M 40,-20 L 40,40 L 45,35 L 45,-25 Z" fill="url(#cardEdge)" opacity="0.8" />
    <path d="M -40,40 L 40,40 L 45,35 L -35,35 Z" fill="url(#cardEdge)" opacity="0.6" />
    
    <!-- Card face -->
    <rect x="-40" y="-60" width="80" height="100" rx="5" fill="url(#cardGradient2)" stroke="#FF5252" stroke-width="1" />
    
    <!-- Card header -->
    <rect x="-40" y="-60" width="80" height="20" rx="5" fill="#B71C1C" stroke="#FF5252" stroke-width="1" />
    <text x="0" y="-45" font-family="Arial" font-size="12" font-weight="bold" text-anchor="middle" fill="#FFFFFF">GOALKEEPER</text>
    
    <!-- Player silhouette with holographic effect -->
    <ellipse cx="0" cy="-10" rx="25" ry="25" fill="#B71C1C" opacity="0.7" />
    <path d="M -15,-10 C -5,-25 5,-25 15,-10 C 15,10 -15,10 -15,-10 Z" fill="#FF5252" opacity="0.4" />
    <text x="0" y="-5" font-family="Arial" font-size="14" font-weight="bold" text-anchor="middle" fill="#FFFFFF">GK</text>
    
    <!-- Stats display -->
    <text x="-30" y="15" font-family="Arial" font-size="8" fill="#FFFFFF">MOV: ★★☆☆☆</text>
    <text x="-30" y="25" font-family="Arial" font-size="8" fill="#FFFFFF">SAV: ★★★★★</text>
    
    <!-- Player Rating -->
    <circle cx="25" cy="-45" r="10" fill="url(#goldenShine)" />
    <text x="25" y="-42" font-family="Arial" font-size="10" font-weight="bold" text-anchor="middle" fill="#000000">90</text>
    
    <!-- Holographic movement indicators -->
    <path d="M 0,35 L 0,60" stroke="#FF5252" stroke-width="1" stroke-dasharray="2,2" />
    <path d="M 0,35 L 30,35" stroke="#FF5252" stroke-width="1" stroke-dasharray="2,2" />
    <path d="M 0,35 L -30,35" stroke="#FF5252" stroke-width="1" stroke-dasharray="2,2" />
    
    <circle cx="0" cy="60" r="5" fill="#FF5252" opacity="0.6" />
    <circle cx="30" cy="35" r="5" fill="#FF5252" opacity="0.6" />
    <circle cx="-30" cy="35" r="5" fill="#FF5252" opacity="0.6" />
  </g>
  
  <!-- Ball with glow and shadow -->
  <g transform="translate(470, 330)">
    <ellipse cx="0" cy="15" rx="15" ry="7" fill="#000000" opacity="0.4" />
    <circle cx="0" cy="0" r="12" fill="#FFFFFF" stroke="#000000" stroke-width="1" filter="url(#glow)" />
    <path d="M -6,-6 L 6,6 M -6,6 L 6,-6" stroke="#000000" stroke-width="1" />
    <circle cx="-3" cy="-3" r="2" fill="#FFFFFF" opacity="0.8" />
  </g>
  
  <!-- Movement trail visualization -->
  <path d="M 470,330 C 430,320 380,300 350,300" fill="none" stroke="#64B5F6" stroke-width="2" stroke-dasharray="5,3" opacity="0.7" />
  
  <!-- Possible moves visualization -->
  <circle cx="530" cy="350" r="10" fill="#4CAF50" opacity="0.5" />
  <circle cx="500" cy="300" r="10" fill="#4CAF50" opacity="0.5" />
  <circle cx="440" cy="350" r="10" fill="#4CAF50" opacity="0.5" />
  
  <!-- Holographic UI elements -->
  <!-- Score display -->
  <rect x="450" y="100" width="100" height="40" rx="10" fill="rgba(0,0,0,0.5)" stroke="#64B5F6" stroke-width="1" />
  <text x="500" y="125" font-family="Arial" font-size="18" font-weight="bold" text-anchor="middle" fill="#FFFFFF">2 - 1</text>
  
  <!-- Match time -->
  <rect x="475" y="150" width="50" height="25" rx="5" fill="rgba(0,0,0,0.3)" stroke="#64B5F6" stroke-width="1" />
  <text x="500" y="167" font-family="Arial" font-size="14" text-anchor="middle" fill="#FFFFFF">75'</text>
  
  <!-- Team possession indicator -->
  <rect x="350" y="150" width="100" height="25" rx="5" fill="rgba(13,71,161,0.7)" stroke="#64B5F6" stroke-width="1" />
  <text x="400" y="167" font-family="Arial" font-size="14" text-anchor="middle" fill="#FFFFFF">POSSESSION</text>
  
  <!-- Tactical information hologram -->
  <g transform="translate(200, 120)">
    <rect x="-80" y="-30" width="160" height="60" rx="5" fill="rgba(0,0,0,0.3)" stroke="#64B5F6" stroke-width="1" />
    <text x="0" y="-10" font-family="Arial" font-size="12" text-anchor="middle" fill="#FFFFFF">FORMATION: 4-3-3</text>
    <text x="0" y="10" font-family="Arial" font-size="12" text-anchor="middle" fill="#FFFFFF">PRESS INTENSITY: HIGH</text>
    <text x="0" y="30" font-family="Arial" font-size="12" text-anchor="middle" fill="#FFFFFF">BUILD-UP: FAST</text>
  </g>
  
  <!-- Player stats hologram -->
  <g transform="translate(800, 120)">
    <rect x="-80" y="-30" width="160" height="60" rx="5" fill="rgba(0,0,0,0.3)" stroke="#FF5252" stroke-width="1" />
    <text x="0" y="-10" font-family="Arial" font-size="12" text-anchor="middle" fill="#FFFFFF">PLAYER: ALISSON</text>
    <text x="0" y="10" font-family="Arial" font-size="12" text-anchor="middle" fill="#FFFFFF">SAVES: 5</text>
    <text x="0" y="30" font-family="Arial" font-size="12" text-anchor="middle" fill="#FFFFFF">CONDITION: 85%</text>
  </g>
  
  <!-- Action buttons with holographic design -->
  <g transform="translate(350, 480)">
    <rect x="-60" y="-20" width="120" height="40" rx="20" fill="rgba(33,150,243,0.5)" stroke="#64B5F6" stroke-width="2" />
    <text x="0" y="5" font-family="Arial" font-size="16" font-weight="bold" text-anchor="middle" fill="#FFFFFF">PASS</text>
  </g>
  
  <g transform="translate(500, 480)">
    <rect x="-60" y="-20" width="120" height="40" rx="20" fill="rgba(244,67,54,0.5)" stroke="#FF5252" stroke-width="2" />
    <text x="0" y="5" font-family="Arial" font-size="16" font-weight="bold" text-anchor="middle" fill="#FFFFFF">SHOOT</text>
  </g>
  
  <g transform="translate(650, 480)">
    <rect x="-60" y="-20" width="120" height="40" rx="20" fill="rgba(76,175,80,0.5)" stroke="#A5D6A7" stroke-width="2" />
    <text x="0" y="5" font-family="Arial" font-size="16" font-weight="bold" text-anchor="middle" fill="#FFFFFF">END TURN</text>
  </g>
  
  <!-- 3D holographic projector base effects -->
  <ellipse cx="500" cy="400" rx="400" ry="20" fill="url(#hologramGlow)" opacity="0.1" />
  <ellipse cx="500" cy="400" rx="380" ry="15" fill="url(#hologramGlow)" opacity="0.2" />
  <ellipse cx="500" cy="400" rx="360" ry="10" fill="url(#hologramGlow)" opacity="0.3" />
  
  <!-- Scanlines effect for holographic look -->
  <g opacity="0.1">
    <rect x="150" y="200" width="700" height="1" fill="#FFFFFF" />
    <rect x="150" y="210" width="700" height="1" fill="#FFFFFF" />
    <rect x="150" y="220" width="700" height="1" fill="#FFFFFF" />
    <rect x="150" y="230" width="700" height="1" fill="#FFFFFF" />
    <rect x="150" y="240" width="700" height="1" fill="#FFFFFF" />
    <rect x="150" y="250" width="700" height="1" fill="#FFFFFF" />
    <rect x="150" y="260" width="700" height="1" fill="#FFFFFF" />
    <rect x="150" y="270" width="700" height="1" fill="#FFFFFF" />
    <rect x="150" y="280" width="700" height="1" fill="#FFFFFF" />
    <rect x="150" y="290" width="700" height="1" fill="#FFFFFF" />
    <rect x="150" y="300" width="700" height="1" fill="#FFFFFF" />
    <rect x="150" y="310" width="700" height="1" fill="#FFFFFF" />
    <rect x="150" y="320" width="700" height="1" fill="#FFFFFF" />
    <rect x="150" y="330" width="700" height="1" fill="#FFFFFF" />
    <rect x="150" y="340" width="700" height="1" fill="#FFFFFF" />
    <rect x="150" y="350" width="700" height="1" fill="#FFFFFF" />
    <rect x="150" y="360" width="700" height="1" fill="#FFFFFF" />
    <rect x="150" y="370" width="700" height="1" fill="#FFFFFF" />
    <rect x="150" y="380" width="700" height="1" fill="#FFFFFF" />
  </g>
</svg>